<?xml version="1.0" encoding="utf-8"?>
<!-- Generator: Adobe Illustrator 28.3.0, SVG Export Plug-In . SVG Version: 6.00 Build 0)  -->
<svg version="1.1" id="Layer_1" xmlns="http://www.w3.org/2000/svg" xmlns:xlink="http://www.w3.org/1999/xlink" x="0px" y="0px"
	 viewBox="0 0 5686.8 1059.4" style="enable-background:new 0 0 5686.8 1059.4;" xml:space="preserve">
<style type="text/css">
	.st0{fill:#FFFFFF;}
	.st1{fill:#E51034;}
</style>
<g>
	<path class="st0" d="M1884.4,747.2l-125.7-148.8h-158.2v148.8h-99.4V309.5h302c106.9,0,187.6,49.4,187.6,144.4
		c0,74.4-49.4,120.7-121.9,137.5l135.1,155.7L1884.4,747.2L1884.4,747.2z M1797.5,515.8c52.5,0,91.3-12.5,91.3-61.3
		s-38.8-61.3-91.3-61.3H1600v122.5L1797.5,515.8L1797.5,515.8z"/>
	<path class="st0" d="M2048.2,575.2c0-115,83.8-185.7,220.1-185.7s220.1,70.7,220.1,185.7s-84.4,185.7-220.1,185.7
		S2048.2,689.6,2048.2,575.2z M2395.2,575.2c0-71.9-53.8-106.9-126.9-106.9s-126.3,35-126.3,106.9s53.8,106.9,126.3,106.9
		S2395.2,646.5,2395.2,575.2z"/>
	<path class="st0" d="M2944.1,554.6v126.9c0,25,4.4,45.7,15.6,65.7h-99.4c-7.5-12.5-12.5-28.1-12.5-40.6v-0.6
		c-26.3,28.8-76.9,53.8-143.2,53.8c-73.8,0-169.4-29.4-169.4-118.8s95.6-118.2,169.4-118.2c66.3,0,116.9,24.4,143.2,53.8V554
		c0-63.8-41.9-91.3-124.4-91.3c-46.9,0-84.4,6.3-125.7,28.8l-28.8-63.8c45-23.1,112.6-38.1,173.8-38.1
		C2868.5,389.5,2944.1,447.7,2944.1,554.6L2944.1,554.6z M2849.7,636.5c-25.6-40.6-76.9-50.6-121.3-50.6c-40,0-98.8,9.4-98.8,55
		s58.8,55.7,98.8,55.7c44.4,0,95.7-10.6,121.3-51.3V636.5z"/>
	<path class="st0" d="M3349.9,458.9V284.5h96.9v462.7h-96.9v-55.7c-28.1,38.1-79.4,68.8-150.1,68.8c-109.4,0-185.7-72.5-185.7-185.1
		s76.3-185.1,185.7-185.1C3270.5,390.2,3321.7,420.8,3349.9,458.9L3349.9,458.9z M3349.2,623.3v-96.3c-30-39.4-74.4-56.2-125.1-56.2
		c-75,0-117.5,36.9-117.5,104.4s42.5,104.4,117.5,104.4C3274.8,679.6,3319.2,662.7,3349.2,623.3L3349.2,623.3z"/>
	<path class="st0" d="M4120.7,603.4L4212,649c-41.3,61.9-125.7,111.9-240.1,111.9c-164.4,0-271.3-86.9-271.3-232.6
		s106.9-232.6,275.7-232.6c110,0,194.4,50.6,234.5,111.3l-91.9,45.6c-31.2-48.8-78.8-70.7-143.8-70.7c-103.8,0-172.6,50-172.6,146.3
		s68.8,146.3,172.6,146.3C4040.1,674.6,4088.2,653.4,4120.7,603.4L4120.7,603.4z"/>
	<path class="st0" d="M4255.8,575.2c0-115,83.8-185.7,220.1-185.7s220.1,70.7,220.1,185.7s-84.4,185.7-220.1,185.7
		S4255.8,689.6,4255.8,575.2z M4602.8,575.2c0-71.9-53.8-106.9-126.9-106.9s-126.3,35-126.3,106.9s53.8,106.9,126.3,106.9
		S4602.8,646.5,4602.8,575.2z"/>
	<path class="st0" d="M5086.6,458.9V284.5h96.9v462.7h-96.9v-55.7c-28.1,38.1-79.4,68.8-150.1,68.8c-109.4,0-185.7-72.5-185.7-185.1
		s76.3-185.1,185.7-185.1C5007.2,390.2,5058.5,420.8,5086.6,458.9L5086.6,458.9z M5086,623.3v-96.3c-30-39.4-74.4-56.2-125-56.2
		c-75,0-117.5,36.9-117.5,104.4S4886,679.6,4961,679.6C5011.6,679.6,5056,662.7,5086,623.3L5086,623.3z"/>
	<path class="st0" d="M5489.9,687.1c59.4,0,96.9-15.6,132.5-44.4l51.9,56.9c-48.1,42.5-110,61.3-189.5,61.3
		c-141.9,0-223.8-71.3-223.8-185.7s81.3-186.3,217-186.3c125,0,208.8,63.8,208.8,185.7c0,11.2-0.6,16.9-2.5,22.5h-330.1
		C5363,659,5409.9,687.1,5489.9,687.1L5489.9,687.1z M5358.6,535.2l235.7-1.2c-15-49.4-54.4-71.3-115.7-71.3
		S5372.3,486.5,5358.6,535.2z"/>
</g>
<g>
	<path class="st1" d="M279.7,0h500.1c154.5,0,279.7,125.2,279.7,279.7v500.1c0,154.5-125.2,279.7-279.7,279.7H279.7
		C125.2,1059.4,0,934.2,0,779.8V279.7C0,125.2,125.2,0,279.7,0z"/>
	<g>
		<path class="st0" d="M676.1,395.9H552.6c-85.9,0-155.8,69.9-155.8,155.8v200.1h-90.2V551.7c0-135.9,110.2-246.1,246.1-246.1h200.3
			v90.2L676.1,395.9"/>
		<path class="st0" d="M571.9,661.5c-19.5,0-35.3-15.8-35.3-35.3v-58.1c0-18,14.6-32.7,32.7-32.7h181.6c1.1,0,2-0.9,2-2v-86.2
			c0-1.1-0.9-2-2-2H554.8c-59.9,0-108.4,48.5-108.4,108.4v72.6c0,69.3,56.2,125.5,125.5,125.5h179c1.1,0,2-0.9,2-2v-86.2
			c0-1.1-0.9-2-2-2H571.9L571.9,661.5z"/>
	</g>
</g>
</svg>
